<?xml version="1.0" standalone="no"?><!DOCTYPE svg PUBLIC "-//W3C//DTD SVG 1.1//EN" "http://www.w3.org/Graphics/SVG/1.1/DTD/svg11.dtd"><svg t="1757239551889" class="icon" viewBox="0 0 1024 1024" version="1.1" xmlns="http://www.w3.org/2000/svg" p-id="6948" xmlns:xlink="http://www.w3.org/1999/xlink" width="200" height="200"><path d="M836.38272 275.87072V0H128v275.87072h157.22496v472.25856H128V1024h708.9664v-275.87072h-157.21984V275.87072h156.63616z m-157.22496 511.41632h118.0672v196.9664H167.15776v-196.9664h118.0672a39.16288 39.16288 0 0 0 39.15776-39.15776V275.87072a39.16288 39.16288 0 0 0-39.15776-39.15776h-118.0672V39.15776h630.0672v196.9664h-118.0672a39.16288 39.16288 0 0 0-39.15776 39.168v472.25344c-0.58368 22.20544 17.536 39.74144 39.15776 39.74144z" fill="#11294B" p-id="6949"></path><path d="M679.15776 236.12928h118.0672V39.16288H167.15776v196.9664h118.0672a39.16288 39.16288 0 0 1 39.15776 39.15776v472.25856a39.16288 39.16288 0 0 1-39.15776 39.15776h-118.0672v196.9664h630.0672v-196.9664h-118.0672a39.168 39.168 0 0 1-39.15776-39.15776V275.87072c-0.58368-22.21056 17.536-39.74144 39.15776-39.74144zM899.5072 1024H896v-19.28704L888.40192 1024h-2.33472l-7.59808-19.28704V1024h-3.5072v-22.79424h5.84192l6.43072 15.77984 6.43072-15.77984h5.84192V1024z m-28.05248-19.28704h-7.59808V1024h-3.5072v-19.28704h-7.59808v-3.5072h18.11968v3.5072h0.58368z" fill="#F15A22" p-id="6950"></path></svg>